# xmcd CD database file
#
# Track frame offsets:
#	150
#	24917
#	45280
#	58920
#	79770
#
# Disc length: 1355 seconds
#
# Revision: 0
# Processed by: cddbd v1.5.1PL2 Copyright (c) Steve Scherf et al.
# Submitted via: CDex 1.51
#
DISCID=31054905
DTITLE=orphee - Lyrical
DYEAR=1900
DGENRE=Rock
TTITLE0=君の中で・・・・・
TTITLE1=My Solitude
TTITLE2=Baby Heart
TTITLE3=Liar
TTITLE4=Never Land
EXTD=
EXTT0=
EXTT1=
EXTT2=
EXTT3=
EXTT4=
PLAYORDER=
